<?xml version="1.0" encoding="utf-8"?>
<!-- Uploaded to: SVG Repo, www.svgrepo.com, Generator: SVG Repo Mixer Tools -->
<svg fill="#000000" width="800px" height="800px" viewBox="0 0 32 32" version="1.1" xmlns="http://www.w3.org/2000/svg">
<title>paper-roll</title>
<path d="M0 32h20v-17.088q1.92 1.088 4 1.088 3.328 0 5.664-2.336t2.336-5.664-2.336-5.632-5.664-2.368h-16q-3.296 0-5.664 2.368t-2.336 5.632v24zM4 28v-20q0-1.632 1.184-2.816t2.816-1.184h9.12q-1.12 1.92-1.12 4v20h-12zM6.016 26.016h8v-2.016h-8v2.016zM6.016 20h8v-1.984h-8v1.984zM6.016 14.016h8v-2.016h-8v2.016zM6.016 8h8v-1.984h-8v1.984zM20 8q0-1.632 1.184-2.816t2.816-1.184 2.816 1.184 1.184 2.816-1.184 2.848-2.816 1.152-2.816-1.152-1.184-2.848z"></path>
</svg>