<?xml version="1.0" encoding="utf-8"?>
<!-- Uploaded to: SVG Repo, www.svgrepo.com, Generator: SVG Repo Mixer Tools -->
<svg width="800px" height="800px" viewBox="0 0 1024 1024" fill="#000000" class="icon"  version="1.1" xmlns="http://www.w3.org/2000/svg"><path d="M873.363 924.731c-0.039 40.905-33.184 74.053-74.083 74.099h-574.519c-40.91-0.039-74.065-33.19-74.111-74.096 0-3.965 0.734-7.904 2.144-11.609l198.996-521.504c0.069-0.827 0.187-1.654 0.291-2.47v-298.833h-23.511c-18.001 0-32.564-14.587-32.564-32.576s14.563-32.576 32.564-32.576h56.076c0.003 0 0.007 0 0.012 0 17.99 0 32.576 14.586 32.576 32.576 0 0 0 0 0 0v333.925c0 1.876-0.163 3.728-0.478 5.581 0 3.973-0.956 9.321-2.388 13.014l-119.863 314.118h432.199l-123.837-313.769c-1.401-3.431-2.233-7.411-2.275-11.581l-0.241-0.957c-0.133-1.155-0.209-2.493-0.209-3.847v-336.484c0-0.003 0-0.007 0-0.012 0-17.985 14.579-32.564 32.564-32.564 0 0 0 0 0 0h57.543c18.001 0 32.564 14.587 32.564 32.576s-14.563 32.576-32.564 32.576h-24.991v300.976l205.824 521.469c1.503 3.822 2.284 7.865 2.284 11.965zM448.899 651.798c0.42-13.171 11.197-23.689 24.432-23.689s24.013 10.517 24.43 23.651c0.001 13.495-10.962 24.47-24.443 24.47s-24.42-10.975-24.42-24.432zM465.164 651.798c-0.003 0.086-0.005 0.188-0.005 0.29 0 4.505 3.651 8.156 8.156 8.156 4.505 0 8.156-3.651 8.156-8.156 0-0.115-0.002-0.228-0.006-0.341-0.178-4.347-3.759-7.814-8.148-7.814-4.402 0-7.989 3.487-8.15 7.851zM575.101 627.366c0-0.003 0-0.007 0-0.012 0-13.5 10.943-24.444 24.444-24.444 13.5 0 24.444 10.943 24.444 24.444 0 13.5-10.943 24.444-24.444 24.444-13.49-0.014-24.423-10.942-24.444-24.43zM591.389 627.366c-0.003 0.086-0.005 0.188-0.005 0.29 0 4.505 3.651 8.156 8.156 8.156 4.505 0 8.156-3.651 8.156-8.156 0-0.115-0.002-0.228-0.006-0.341-0.178-4.347-3.759-7.814-8.148-7.814-4.402 0-7.989 3.487-8.15 7.851zM507.223 545.939c0.027-18.737 15.212-33.919 33.949-33.939 18.733 0.027 33.909 15.207 33.93 33.936-0.027 18.732-15.2 33.908-33.924 33.941-18.743-0.014-33.934-15.199-33.953-33.936zM523.51 545.939c0 9.728 7.922 17.651 17.663 17.651 9.716 0 17.663-7.922 17.663-17.651 0-9.741-7.947-17.663-17.663-17.663-9.741 0-17.663 7.922-17.663 17.663z" /></svg>